<svg version="1.2" xmlns="http://www.w3.org/2000/svg" viewBox="0 0 38 38" width="25" height="25"><style>.a{fill:#a17c55}</style><path class="a" d="m0.2 37.3l2.6-9.9c-2.1-3.8-2.8-8.3-1.9-12.5 0.9-4.3 3.4-8.2 6.9-10.8 3.5-2.7 7.8-4 12.2-3.7 4.4 0.3 8.5 2.2 11.6 5.2 3.2 3.1 5.1 7.2 5.4 11.6 0.4 4.4-0.9 8.7-3.5 12.2-2.6 3.5-6.4 6-10.7 7-4.3 0.9-8.8 0.3-12.7-1.8zm10.5-6.3l0.6 0.4c2.8 1.6 6.1 2.3 9.3 1.9 3.2-0.4 6.2-1.8 8.6-4.1 2.3-2.3 3.8-5.3 4.2-8.5 0.5-3.2-0.2-6.5-1.8-9.3-1.6-2.8-4.1-5-7.1-6.3-3-1.2-6.3-1.5-9.5-0.6-3.1 0.8-5.9 2.7-7.9 5.2-2 2.6-3.1 5.8-3.1 9 0 2.7 0.8 5.4 2.2 7.6l0.4 0.7-1.5 5.5z"/>
<path fill-rule="evenodd" class="a" d="m25.5 21.2q-0.5-0.4-1.2-0.6-0.7-0.2-1.4 0c-0.6 0.3-1.1 1.3-1.5 1.9q-0.2 0.2-0.4 0.2-0.2 0.1-0.4 0c-2.5-1-4.6-2.8-5.9-5.1q-0.2-0.2-0.2-0.5 0-0.3 0.2-0.5c0.5-0.4 0.9-1 1.1-1.7 0-0.7-0.1-1.4-0.5-2.1-0.3-0.9-0.8-1.7-1.5-2.3q-0.6-0.2-1.2-0.1-0.6 0.1-1 0.5-0.8 0.7-1.3 1.6-0.4 1-0.3 2 0 0.6 0.1 1.2 0.4 1.3 1.1 2.5 0.5 0.9 1.2 1.8c1.3 1.8 3 3.4 5 4.6q1.5 0.9 3.1 1.5c1.2 0.5 2.4 0.7 3.7 0.6 0.7-0.1 1.3-0.4 1.9-0.8 0.6-0.5 1-1 1.3-1.7q0.3-0.6 0.2-1.2c-0.2-0.9-1.3-1.4-2.1-1.8z"/></svg>