<svg width="66" height="65" viewBox="0 0 66 65" fill="none" xmlns="http://www.w3.org/2000/svg">
<path d="M39.6815 12.1856L36.3747 9.36756C34.4306 7.71081 31.5694 7.71081 29.6253 9.36756L26.3181 12.1857C25.485 12.8956 24.4491 13.3245 23.358 13.4116L19.0305 13.7567C16.4844 13.9599 14.4592 15.9818 14.256 18.528L13.9096 22.859C13.8225 23.9501 13.3964 24.9855 12.6865 25.8186L9.86718 29.126C8.21042 31.0701 8.2112 33.9289 9.86795 35.873L12.6847 39.1804C13.3947 40.0135 13.8249 41.0489 13.9119 42.14L14.2584 46.4709C14.4616 49.0171 16.4809 51.0391 19.0271 51.2423L23.3594 51.5874C24.4505 51.6745 25.4859 52.1033 26.319 52.8133L29.625 55.6315C31.5691 57.2882 34.4306 57.2879 36.3747 55.6311L39.6808 52.813C40.5139 52.1031 41.5493 51.675 42.6404 51.5879L46.9726 51.2423C49.5188 51.0391 51.5381 49.0166 51.7413 46.4704L52.0878 42.1397C52.1749 41.0486 52.6051 40.0123 53.315 39.1792L56.1318 35.8728C57.7885 33.9287 57.7883 31.069 56.1315 29.1249L53.3148 25.8191C52.6048 24.986 52.1741 23.9501 52.087 22.859L51.7427 18.5275C51.5395 15.9813 49.517 13.9602 46.9708 13.757L42.6401 13.4118C41.549 13.3248 40.5146 12.8955 39.6815 12.1856Z" fill="#D8B188" fill-opacity="0.26"/>
<path d="M41.1249 27.0828L30.2915 37.9161L24.8749 32.4995M36.3747 9.36756L39.6815 12.1856C40.5146 12.8955 41.549 13.3248 42.6401 13.4118L46.9708 13.757C49.517 13.9602 51.5395 15.9813 51.7427 18.5275L52.087 22.859C52.1741 23.9501 52.6048 24.986 53.3148 25.8191L56.1315 29.1249C57.7883 31.069 57.7885 33.9287 56.1318 35.8728L53.315 39.1792C52.6051 40.0123 52.1749 41.0486 52.0878 42.1397L51.7413 46.4704C51.5381 49.0166 49.5188 51.0391 46.9726 51.2423L42.6404 51.5879C41.5493 51.675 40.5139 52.1031 39.6808 52.813L36.3747 55.6311C34.4306 57.2879 31.5691 57.2882 29.625 55.6315L26.319 52.8133C25.4859 52.1033 24.4505 51.6745 23.3594 51.5874L19.0271 51.2423C16.4809 51.0391 14.4616 49.0171 14.2584 46.4709L13.9119 42.14C13.8249 41.0489 13.3947 40.0135 12.6847 39.1804L9.86795 35.873C8.2112 33.9289 8.21042 31.0701 9.86718 29.126L12.6865 25.8186C13.3964 24.9855 13.8225 23.9501 13.9096 22.859L14.256 18.528C14.4592 15.9818 16.4844 13.9599 19.0305 13.7567L23.358 13.4116C24.4491 13.3245 25.485 12.8956 26.3181 12.1857L29.6253 9.36756C31.5694 7.71081 34.4306 7.71081 36.3747 9.36756Z" stroke="#C1986C" stroke-width="2.70833" stroke-linecap="round" stroke-linejoin="round"/>
</svg>
